# xmcd
#
# Track frame offsets:
#	150
#	21465
#	45057
#	65918
#	84214
#	105358
#	117882
#	138965
#	155877
#	175900
#	204507
#	223737
#
# Disc length: 3252 seconds
#
# Revision: 0
# Processed by: cddbd v1.5.2PL0 Copyright (c) Steve Scherf et al.
# Submitted via: dBpowerAMP V4.0
#
DISCID=a20cb20c
DTITLE=Markowski - Sleeping in trees
DYEAR=2009
DGENRE=Country
TTITLE0=Montgomery
TTITLE1=Circles
TTITLE2=Magnolia
TTITLE3=Alles ist besser
TTITLE4=Clouds
TTITLE5=Say
TTITLE6=Buy me a ticket
TTITLE7=So soll es sein
TTITLE8=Photographs
TTITLE9=Dear mr. Ray
TTITLE10=Just the way it is
TTITLE11=Träume süss
EXTD=
EXTT0=
EXTT1=
EXTT2=
EXTT3=
EXTT4=
EXTT5=
EXTT6=
EXTT7=
EXTT8=
EXTT9=
EXTT10=
EXTT11=
PLAYORDER=
